<?xml version="1.0" standalone="no"?>
<!DOCTYPE svg PUBLIC "-//W3C//DTD SVG 20010904//EN"
 "http://www.w3.org/TR/2001/REC-SVG-20010904/DTD/svg10.dtd">
<svg version="1.0" xmlns="http://www.w3.org/2000/svg"
 width="1920.000000pt" height="1920.000000pt" viewBox="0 0 1920.000000 1920.000000"
 preserveAspectRatio="xMidYMid meet">
<metadata>
Created by potrace 1.11, written by Peter Selinger 2001-2013
</metadata>
<g transform="translate(0.000000,1920.000000) scale(0.100000,-0.100000)"
fill="#000000" stroke="none">
<path d="M11307 16364 c-1 -1 -20 -4 -42 -8 -141 -20 -237 -68 -340 -166 -78
-75 -202 -163 -293 -209 -44 -22 -81 -27 -255 -35 -234 -11 -326 -116 -427
-488 -17 -62 -33 -122 -35 -133 -3 -11 -7 -31 -11 -45 -3 -14 -14 -70 -24
-125 -29 -153 -30 -155 -51 -229 -26 -87 -131 -329 -221 -506 -52 -103 -80
-147 -120 -187 -75 -73 -85 -82 -163 -142 -39 -30 -101 -82 -140 -116 -93 -81
-144 -119 -152 -111 -5 5 -1 39 23 201 17 109 4 239 -36 362 -25 77 -250 453
-272 453 -5 0 -30 19 -54 43 -77 71 -193 135 -276 151 -13 2 -30 7 -38 10 -27
10 -147 26 -225 30 -44 3 -151 -19 -216 -43 -67 -26 -191 -106 -279 -181 -172
-146 -178 -160 -186 -435 -14 -424 -14 -433 26 -588 20 -78 35 -154 34 -169
-6 -71 -170 -256 -267 -302 -60 -28 -106 -37 -198 -37 -63 1 -99 11 -127 38
-144 138 -326 302 -390 349 -97 73 -137 89 -222 88 -84 -2 -308 -53 -483 -111
-160 -53 -173 -70 -286 -365 -45 -117 -109 -372 -127 -507 -2 -19 -6 -37 -9
-41 -2 -4 -7 -42 -10 -86 -10 -128 -14 -156 -35 -219 -11 -33 -21 -69 -23 -80
-2 -11 -6 -27 -10 -35 -25 -70 -59 -168 -63 -180 -13 -53 -24 -99 -28 -125
-12 -73 -15 -94 -21 -165 -4 -41 -10 -96 -15 -123 -11 -73 -4 -170 15 -208 37
-71 143 -146 297 -210 60 -25 206 -62 245 -62 13 0 10 -26 -8 -75 -8 -22 -4
-256 5 -270 2 -4 7 -32 10 -62 7 -62 9 -74 32 -180 38 -173 101 -379 150 -488
13 -29 24 -57 24 -62 0 -6 4 -18 9 -28 11 -22 26 -58 41 -102 54 -151 170
-371 253 -479 l35 -44 -20 -71 c-11 -39 -29 -96 -40 -126 -10 -30 -21 -62 -23
-70 -9 -39 -83 -226 -125 -315 -64 -138 -109 -207 -274 -429 -78 -105 -163
-220 -189 -256 -178 -248 -238 -321 -395 -477 -170 -172 -197 -200 -267 -288
-22 -27 -42 -52 -46 -55 -15 -14 -121 -153 -158 -208 -96 -142 -147 -303 -156
-492 -7 -138 51 -259 170 -359 28 -23 61 -51 74 -62 82 -69 452 -315 815 -541
85 -54 255 -151 266 -154 3 0 41 -17 85 -38 44 -20 89 -41 100 -46 241 -110
869 -302 1132 -345 11 -1 29 -6 40 -9 10 -3 36 -8 58 -11 22 -4 47 -8 55 -10
16 -4 71 -15 105 -20 11 -1 61 -10 110 -19 50 -8 106 -18 125 -20 19 -3 58 -7
85 -11 58 -7 100 -14 135 -20 14 -2 50 -7 81 -10 31 -3 66 -8 78 -10 12 -2 54
-7 94 -10 39 -3 83 -8 97 -10 14 -2 63 -7 110 -11 101 -7 127 -10 245 -19 223
-19 317 -6 448 62 73 39 113 85 137 157 15 47 17 165 3 191 -7 12 -6 31 4 64
15 49 24 86 27 111 1 9 5 20 8 25 3 6 11 45 18 88 6 43 13 88 15 100 5 34 16
155 21 226 9 154 20 259 34 326 5 22 12 55 15 74 3 19 8 37 10 41 2 4 7 20 10
37 4 25 42 189 62 268 14 59 23 113 27 168 6 102 127 518 187 646 12 25 41 87
65 136 56 118 121 293 123 334 1 15 35 11 151 -19 19 -5 62 -12 95 -15 33 -4
71 -9 85 -11 75 -14 315 -1 420 22 14 3 36 7 50 10 47 9 145 47 212 81 36 19
77 36 90 38 12 3 34 7 48 10 115 25 468 25 599 0 137 -26 534 -26 711 0 14 2
61 6 105 10 44 3 103 8 130 11 28 3 101 7 163 9 62 2 120 6 130 9 9 3 33 8 52
11 19 3 46 8 60 10 14 3 34 7 45 9 11 3 61 13 110 24 50 11 108 23 130 27 22
3 52 8 67 10 21 4 31 -1 49 -27 66 -97 238 -208 419 -270 115 -40 353 -96 525
-123 112 -17 552 -29 570 -15 6 4 26 10 45 13 109 15 273 72 364 126 82 49
175 143 212 216 27 53 31 71 33 156 3 119 -9 164 -58 224 -34 42 -158 132
-221 162 -14 6 -63 29 -110 51 -89 41 -315 168 -409 231 -31 20 -72 44 -91 54
-36 17 -41 20 -127 74 -28 18 -54 33 -57 33 -6 0 -78 53 -120 87 -59 48 -185
86 -321 97 -33 3 -89 8 -125 11 -75 8 -353 77 -421 104 -78 32 -184 111 -309
232 -25 24 -65 60 -90 79 -25 19 -47 37 -50 41 -3 3 -30 20 -60 36 -47 26 -96
43 -170 58 -49 10 -183 78 -216 110 -6 5 -42 38 -80 72 -38 34 -96 87 -129
118 -33 30 -75 65 -93 78 -53 37 -99 143 -117 272 -3 22 -12 74 -20 115 -8 41
-17 86 -20 100 -6 27 -10 52 -20 120 -9 53 -67 232 -102 310 -32 73 -50 125
-59 180 -13 77 -6 322 10 394 18 76 69 205 117 292 17 33 40 75 51 96 10 20
96 114 191 210 208 209 256 262 344 381 37 51 71 97 76 102 100 127 240 363
252 425 3 14 8 26 12 28 95 32 532 307 619 389 22 21 72 66 111 101 39 34 84
82 99 106 24 38 39 48 118 81 50 21 110 46 133 56 23 11 44 19 47 19 6 0 113
48 201 90 33 16 109 52 169 80 158 73 233 127 355 253 146 152 171 189 221
315 47 120 62 210 46 281 -11 44 -57 112 -100 145 -34 26 -187 107 -216 115
-8 2 -32 9 -52 14 -50 14 -111 1 -303 -63 -83 -28 -154 -52 -160 -54 -5 -2
-19 -6 -30 -10 -11 -5 -63 -24 -115 -43 -52 -19 -115 -44 -140 -55 -25 -11
-49 -21 -55 -23 -5 -1 -17 -5 -25 -8 -8 -4 -51 -20 -95 -36 -44 -16 -131 -52
-194 -80 -109 -49 -118 -52 -195 -50 -45 0 -166 -2 -271 -6 -152 -6 -200 -11
-240 -27 -58 -23 -124 -70 -180 -128 -22 -23 -56 -50 -75 -60 -41 -21 -84 -64
-175 -175 -148 -181 -352 -372 -515 -483 -41 -28 -102 -76 -135 -107 -33 -31
-76 -69 -95 -83 -19 -15 -37 -29 -40 -32 -14 -16 -284 -222 -337 -258 -64 -43
-217 -123 -263 -137 -14 -4 -29 -11 -35 -15 -5 -4 -39 -17 -75 -29 -36 -13
-72 -26 -80 -29 -8 -3 -17 -6 -20 -7 -3 0 -22 -7 -43 -14 -40 -14 -227 -23
-227 -11 0 3 16 33 36 66 83 136 98 162 129 229 29 63 44 102 51 130 9 37 61
209 94 310 22 66 48 156 59 200 36 145 73 236 113 276 26 26 88 114 88 124 0
4 9 19 19 33 10 15 19 30 20 34 1 4 11 29 22 55 12 27 25 58 30 71 5 13 13 21
18 17 5 -3 33 4 63 16 29 12 67 25 84 30 44 13 143 79 190 126 91 93 123 142
206 314 75 154 96 217 92 274 -4 53 -33 195 -45 216 -5 9 -11 39 -15 65 -5 49
-30 91 -85 143 -129 123 -339 234 -472 250 -31 4 -58 6 -60 5z"/>
</g>
</svg>
